<?xml version="1.0" encoding="utf-8"?>
<!-- Generator: Adobe Illustrator 21.1.0, SVG Export Plug-In . SVG Version: 6.00 Build 0)  -->
<svg version="1.1" id="Calque_1" xmlns="http://www.w3.org/2000/svg" xmlns:xlink="http://www.w3.org/1999/xlink" x="0px" y="0px"
	 viewBox="0 0 129 99" style="enable-background:new 0 0 129 99;" xml:space="preserve">
<style type="text/css">
	.st0{fill:#191829;}
</style>
<g>
	<path class="st0" d="M22.7,56.2c-1,0-2-1-2-2c0-1,0.8-2,2-2h16.7c1,0,2,1,2,2v29.1c0,1.2-0.8,2-2,2c-1,0-2-1-2-2
		c0-1-0.8-1.8-1.8-1.8s-1.8,0.8-1.8,1.8c0,1,0.8,1.8,1.8,1.8s2,1,2,2c0,1.2-0.8,2-2,2c-3.1,0-5.7-2.6-5.7-5.9c0-3.1,2.6-5.9,5.7-5.9
		c0.6,0,1.2,0.2,1.8,0.4V56H22.7V56.2z M16.6,45.4H46c1,0,2,1,2,2v44.6c0,1.2-0.8,2-2,2H19.1c-1,0-1.8-0.8-2-1.8l-2.6-44.6
		C14.4,46.3,15.4,45.4,16.6,45.4 M44.1,49.3H18.5l2.4,40.7h23.2V49.3z M104.9,59.5c0.2-1.2,1.2-1.8,2.2-1.6c1,0.2,1.8,1.2,1.6,2.2
		c-0.6,3.9-3.1,7.1-7.1,7.1h-3.5c-1,0-2-1-2-2c0-1.2,0.8-2,2-2h3.5C103.6,63.2,104.6,61.5,104.9,59.5 M53.5,48.1
		c-0.8,0.8-2,1-2.7,0.2s-0.8-2-0.2-2.7c5.5-6.5,7.7-13.9,11.2-21.6V10.8c0-0.4,0.2-1,0.4-1.2c3.1-4.1,8.8-4.5,13.2-2.2l0.8,0.8
		c3.3,5.9,4.9,10.4,5.3,15.5c0.4,4.3-0.2,8.8-1.6,14.9h24.9c4.7,0,7.3,4.3,7.3,8.6c0,4.5-2.6,8.6-7.3,8.6h-3.5c-1,0-2-1-2-2
		c0-1.2,0.8-2,2-2h3.5c2.6,0,3.5-2.6,3.5-4.7c0-2.2-1-4.7-3.3-4.7H77.4c-1.2,0-2.2-1.2-1.8-2.4c1.6-6.9,2.4-11.8,2-16.1
		c-0.4-4.1-1.8-8.1-4.7-13.4c-2.4-1.2-5.5-1.2-7.5,0.8v13l-0.2,0.8C61.7,33.4,59.6,41,53.5,48.1 M102.6,70.5c0.2-1,1.2-1.8,2.2-1.6
		c1,0.2,1.8,1.2,1.6,2.4c-0.6,3.7-3.1,6.7-7.1,6.7h-3.5c-1,0-2-1-2-2c0-1.2,0.8-2,2-2h3.5C101.2,73.8,102.2,72.3,102.6,70.5
		 M98.9,81.7c0.4-1,1.4-1.6,2.4-1.2c1,0.4,1.6,1.4,1.2,2.6c-1.4,4.1-4.7,8.1-9.2,8.1H52.7c-1,0-2-1-2-2c0-1,0.8-2,2-2h40.5
		C95.9,86.8,98.1,84,98.9,81.7"/>
</g>
<g>
</g>
<g>
</g>
<g>
</g>
<g>
</g>
<g>
</g>
<g>
</g>
<g>
</g>
<g>
</g>
<g>
</g>
<g>
</g>
<g>
</g>
<g>
</g>
<g>
</g>
<g>
</g>
<g>
</g>
</svg>
