<?xml version="1.0" encoding="utf-8"?>
<!-- Generator: Adobe Illustrator 21.1.0, SVG Export Plug-In . SVG Version: 6.00 Build 0)  -->
<svg version="1.1" id="Calque_1" xmlns="http://www.w3.org/2000/svg" xmlns:xlink="http://www.w3.org/1999/xlink" x="0px" y="0px"
	 viewBox="0 0 152 124" style="enable-background:new 0 0 152 124;" xml:space="preserve">
<g>
	<g>
		<path d="M140.5,16.6v71.7c0,0.6-0.3,0.9-0.9,0.9H13.4c-0.6,0-0.9-0.3-0.9-0.9V16.6c0-0.6,0.3-0.9,0.9-0.9h126.2
			C140.2,15.7,140.5,16,140.5,16.6 M139.6,9.6H13.4c-4,0-7,3.1-7,7v71.7c0,4,3.1,7,7,7h126.2c4,0,7-3.1,7-7V16.6
			C146.7,12.7,143.6,9.6,139.6,9.6"/>
		<path d="M108.1,108.9H44.9c-1.5,0-3.1,1.2-3.1,3.1c0,1.5,1.2,3.1,3.1,3.1h63.1c1.5,0,3.1-1.2,3.1-3.1
			C111.1,110.1,109.9,108.9,108.1,108.9"/>
		<path d="M83.2,104.9c1.5,0,3.1-1.2,3.1-3.1c0-1.5-1.2-3.1-3.1-3.1H70.1c-1.5,0-3.1,1.2-3.1,3.1c0,1.5,1.2,3.1,3.1,3.1H83.2z"/>
	</g>
	<polygon points="53.2,75.5 48.9,75.5 48.9,35.9 39.1,35.9 39.1,31.4 63.3,31.4 63.3,35.9 53.2,35.9 	"/>
	<polygon points="91.2,75.5 69.1,31.4 74,31.4 92.7,68.4 110.8,31.4 116,31.4 94,75.5 	"/>
</g>
<g>
</g>
<g>
</g>
<g>
</g>
<g>
</g>
<g>
</g>
<g>
</g>
<g>
</g>
<g>
</g>
<g>
</g>
<g>
</g>
<g>
</g>
<g>
</g>
<g>
</g>
<g>
</g>
<g>
</g>
</svg>
